<svg width="351" height="43" fill="none" xmlns="http://www.w3.org/2000/svg"><path d="M114.782 26.366l-2.017 6.049c-1.259 4.258-3.62 5.13-7.687 5.178H99.22V13.59c.049-1.5 1.211-2.613 2.711-2.613h.533v-.484h-13.41v.484h.532c1.452 0 2.663 1.113 2.663 2.613v22.937c-.049 1.452-1.21 2.516-2.615 2.516h-.58v.484h22.754l2.974-13.162z" fill="#202D52"/><path d="M138.758 9.72c-.629.338-3.292.774-5.083.774h-17.864c-1.84 0-4.309-.436-5.084-.774v7.694h.484v-.436c0-2.758 1.598-4.549 4.406-4.549h5.616v24.05c-.049 1.5-1.21 2.614-2.663 2.614h-.532v.483H131.4v-.483h-.485c-1.452 0-2.662-1.113-2.662-2.565V12.43h5.567c2.857 0 4.454 1.79 4.454 4.548v.436h.484V9.72zm16.288 29.808v-.484h-.581c-1.549 0-2.76-1.064-2.808-2.516V13.543c.048-1.452 1.259-2.565 2.808-2.565h.533v-.484h-13.702v.484h.581c1.501 0 2.76 1.113 2.76 2.613V36.48c0 1.5-1.259 2.564-2.76 2.564h-.581v.484h13.75zM44.486.713h-.544L27.765 28.477 10.881.659h-.545L5.87 35.609c-.327 2.123-2.07 3.375-4.03 3.375h-.817L0 39.528h13.282l-.876-.49h-.871c-1.144 0-2.233-1.143-2.125-2.34l2.18-19.599 12.617 15.316 3.558 8.569.98-3.529c1.313-5.544 2.826-7.56 2.826-7.56l6.815-12.905 2.179 19.707c.109 1.198-.98 2.341-2.124 2.341h-.872l-1.344.49h19.407l-1.669-.544h-.871c-1.961 0-3.65-1.252-3.976-3.376L44.486.713zm33.098 9.781v.484h.678c1.21 0 2.178.822 2.227 2.032v16.308c-.049 5.613-3.05 8.952-8.085 8.952-4.939 0-7.843-3.533-7.843-9.485V13.06c.048-1.259.968-2.081 2.178-2.081h.726v-.484H54.733v.484h.629c1.21 0 2.227.822 2.227 2.08v16.018c0 6.92 4.6 11.13 13.895 11.13 7.746 0 12.2-4.259 12.2-11.227V13.01c0-1.21 1.017-2.032 2.179-2.032h.677v-.484h-8.956z" fill="#202D52"/><path d="M166.965 1.219h7.68c1.634 0 3.104.236 4.411.708 1.344.471 2.469 1.161 3.377 2.068.908.871 1.598 1.942 2.07 3.212.508 1.234.762 2.65.762 4.247 0 1.741-.417 3.411-1.252 5.008a10.561 10.561 0 01-3.323 3.92c-1.379.98-2.941 1.47-4.684 1.47.618.253 1.289.78 2.016 1.578a25.146 25.146 0 011.906 2.232l.708 1.089c.508.69 1.125 1.542 1.852 2.558a214.735 214.735 0 002.287 2.995c.763.98 1.416 1.76 1.961 2.34a23.62 23.62 0 002.179 2.124 9.382 9.382 0 002.342 1.47c.871.362.18.08 2.197.604l8.069 2.5 14.327 1.513-17.857-1.008c-1.67 0-10.987-2.767-12.103-3.529-1.199-.508-1.314-.879-2.15-1.605a23.47 23.47 0 01-2.124-2.177l-.926-1.253a98.713 98.713 0 00-1.743-2.45 200.29 200.29 0 00-1.96-2.884 152.695 152.695 0 00-1.689-2.396 255.3 255.3 0 01-.817-1.198 18.747 18.747 0 00-2.287-2.504c-.835-.762-1.743-1.143-2.724-1.143v-.544l.817.054c.581 0 1.271-.018 2.07-.054.944-.037 1.979-.182 3.105-.436 1.125-.254 2.178-.78 3.159-1.579.98-.798 1.724-2.014 2.233-3.647.109-.4.199-.89.272-1.47a10 10 0 00.055-1.796c-.037-2.468-.672-4.428-1.907-5.88-1.198-1.488-2.814-2.286-4.847-2.395a30.236 30.236 0 00-3.159-.054h-3.758c0-.037-.055-.182-.164-.436a5.308 5.308 0 00-.272-.817l-.109-.435zm.708 0v38.107h-3.54V1.22h3.54zm-3.377 34.133v3.974h-4.357v-.544h.708c.944 0 1.743-.327 2.396-.98.69-.69 1.053-1.506 1.09-2.45h.163zm0-30.159h-.163a3.364 3.364 0 00-1.09-2.395c-.653-.69-1.452-1.035-2.396-1.035h-.708V1.22h4.357v3.974zm3.214 30.16h.163c0 .943.345 1.76 1.035 2.449.69.653 1.507.98 2.451.98h.653v.544h-4.302v-3.974z" fill="#3881EE"/><path d="M202.778 10.292v29.034h-3.098V10.292h3.098zm13.023 27.534l-.096 1.5h-13.024v-1.5h13.12zm-2.275-13.743v1.452h-10.845v-1.452h10.845zm2.227-13.79v1.5h-13.072v-1.5h13.072zm2.76 22.114l-2.663 6.92h-7.359l1.646-1.5c1.614 0 2.905-.227 3.873-.678 1.001-.484 1.807-1.13 2.421-1.936a14.735 14.735 0 001.597-2.806h.485zm-4.987-6.969v2.759h-.533v-.63c0-.548-.161-1.016-.484-1.403-.323-.42-.823-.629-1.501-.629v-.097h2.518zm0-4.016v2.758h-2.518v-.097c.678 0 1.178-.193 1.501-.58.323-.42.484-.904.484-1.452v-.63h.533zm2.227-9.775v3.339h-.533v-.726c0-.677-.226-1.258-.677-1.742-.42-.484-1.001-.726-1.743-.726v-.145h2.953zm0-2.13v1.259l-5.519-.484c1 0 2.065-.08 3.195-.242 1.13-.193 1.904-.37 2.324-.532zM199.776 36.23l.63 3.097h-4.212v-.484h.678c.806 0 1.468-.258 1.985-.774a2.7 2.7 0 00.823-1.839h.096zm0-22.888h-.096c-.033-.742-.307-1.355-.823-1.84-.517-.483-1.179-.725-1.985-.725h-.678v-.484h4.212l-.63 3.049zm26.489-3.05h5.761c.872 0 1.872.08 3.002.242 1.162.161 2.275.484 3.341.968a6.69 6.69 0 012.662 2.177c.71.968 1.065 2.259 1.065 3.872a5.08 5.08 0 01-.774 2.71 7.35 7.35 0 01-1.985 2.129 7.981 7.981 0 01-2.566 1.161c1.581.161 2.969.613 4.164 1.355 1.226.71 2.194 1.613 2.904 2.71a6.462 6.462 0 011.065 3.58c0 1.581-.338 2.904-1.016 3.969a7.24 7.24 0 01-2.566 2.468 11.614 11.614 0 01-3.486 1.306 18.296 18.296 0 01-3.679.387h-5.907v-.339c.032-.258.049-.5.049-.725v-.388h5.809c1.388 0 2.631-.225 3.728-.677 1.13-.484 2.017-1.226 2.663-2.226.645-1 .968-2.258.968-3.774 0-1.549-.339-2.79-1.017-3.726a6.276 6.276 0 00-2.662-2.178c-1.098-.516-2.308-.855-3.631-1.016a27.4 27.4 0 00-3.97-.29v-.484c.871 0 1.807-.065 2.808-.194 1-.129 1.92-.387 2.759-.774a5.465 5.465 0 002.13-1.79c.549-.807.823-1.872.823-3.194 0-2.033-.597-3.5-1.791-4.404-1.194-.935-2.84-1.403-4.938-1.403h-5.277c0-.032-.049-.162-.145-.387-.065-.258-.129-.5-.194-.726l-.097-.339zm2.421 0v29.034h-3.05V10.292h3.05zm-2.905 25.937v3.097h-3.631v-.484h.581c.839 0 1.517-.258 2.033-.774.549-.516.839-1.129.872-1.839h.145zm0-22.84h-.145c-.033-.774-.323-1.403-.872-1.887-.516-.484-1.194-.726-2.033-.726h-.581v-.484h3.631v3.097zm40.29-3.774c2.259 0 4.373.37 6.342 1.113 2.001.71 3.744 1.742 5.229 3.097a14.208 14.208 0 013.534 4.839c.839 1.838 1.259 3.887 1.259 6.145 0 2.258-.42 4.323-1.259 6.194a14.34 14.34 0 01-3.534 4.79c-1.485 1.356-3.228 2.404-5.229 3.146-1.969.71-4.083 1.065-6.342 1.065-2.26 0-4.374-.355-6.342-1.065a16.511 16.511 0 01-5.229-3.145 14.65 14.65 0 01-3.486-4.79c-.839-1.872-1.259-3.937-1.259-6.195 0-2.258.42-4.307 1.259-6.145a14.51 14.51 0 013.486-4.84 15.82 15.82 0 015.229-3.096c1.968-.742 4.082-1.113 6.342-1.113zm0 28.937c2.388 0 4.551-.58 6.487-1.742 1.937-1.161 3.47-2.774 4.6-4.84 1.129-2.064 1.694-4.451 1.694-7.16 0-2.743-.565-5.13-1.694-7.163-1.13-2.064-2.663-3.677-4.6-4.839-1.936-1.161-4.099-1.742-6.487-1.742-2.356 0-4.503.581-6.439 1.742-1.937 1.162-3.47 2.775-4.6 4.84-1.129 2.032-1.694 4.42-1.694 7.161 0 2.71.565 5.097 1.694 7.162 1.13 2.065 2.663 3.678 4.6 4.839 1.936 1.161 4.083 1.742 6.439 1.742zm26.616-28.26h6.245c1.517 0 2.873.178 4.067.532 1.227.355 2.259.871 3.099 1.549a6.67 6.67 0 011.985 2.468c.451.968.677 2.064.677 3.29a7.637 7.637 0 01-.968 3.775c-.645 1.161-1.549 2.113-2.711 2.855-1.13.742-2.421 1.193-3.873 1.355.549.226 1.178.726 1.888 1.5a18.997 18.997 0 011.888 2.274l.629.871c.42.549.953 1.242 1.598 2.081.678.806 1.34 1.58 1.985 2.323a59.358 59.358 0 001.84 1.935 7.692 7.692 0 001.84 1.307c.677.29 1.452.435 2.323.435v.484h-1.5c-1.776 0-3.244-.226-4.406-.677-1.13-.452-2.05-1-2.76-1.645a24.633 24.633 0 01-1.839-1.936 62.98 62.98 0 01-.92-1.21 93.19 93.19 0 00-1.501-2.177 139.891 139.891 0 00-1.501-2.081 68.793 68.793 0 00-.823-1.162 12.112 12.112 0 00-2.227-2.226c-.839-.677-1.727-1.016-2.663-1.016v-.484l.775.049c.516 0 1.178-.016 1.985-.049a38.285 38.285 0 002.711-.193 5.437 5.437 0 002.518-1.065c.806-.58 1.436-1.548 1.888-2.903a6.01 6.01 0 00.29-1.258c.065-.484.081-.984.049-1.5-.033-.904-.21-1.71-.533-2.42a4.923 4.923 0 00-1.307-1.839 5.867 5.867 0 00-1.985-1.21c-.775-.29-1.646-.451-2.614-.483a56.783 56.783 0 00-3.97-.049c-1.13.033-1.695.033-1.695 0 0-.032-.048-.161-.145-.387a4.816 4.816 0 00-.242-.726l-.097-.387zm.581 0v29.034h-3.099V10.292h3.099zm-2.953 25.937l.581 3.097h-4.115v-.484h.677c.775 0 1.42-.258 1.937-.774a2.695 2.695 0 00.823-1.839h.097zm0-22.888h-.097c-.032-.742-.307-1.355-.823-1.84-.517-.483-1.162-.725-1.937-.725h-.677v-.484h4.115l-.581 3.049zm2.808 22.888h.145c.032.71.307 1.323.823 1.84.516.515 1.162.773 1.937.773h.629l.048.484h-4.163l.581-3.097zM319.7 9.566l26.821 25.26.484 5.178-26.821-25.405-.484-5.033zm.096 26.76v3h-3.631v-.484h.823c.743 0 1.372-.242 1.889-.725a2.358 2.358 0 00.774-1.79h.145zm2.034 0c0 .71.258 1.307.774 1.79a2.775 2.775 0 001.889.726h.823v.484h-3.631v-3h.145zm-2.13-26.76l2.081 2.71.049 27.05h-2.179V15.615c0-1.645-.08-3.065-.242-4.258l-.194-1.79h.485zm27.305.726V33.81c0 1.032.032 2.032.097 3 .064.935.129 1.71.193 2.323l.146.87h-.436l-2.13-2.564V10.292h2.13zm-.145 3v-3h3.631v.484h-.823c-.71 0-1.34.242-1.888.726a2.355 2.355 0 00-.775 1.79h-.145zm-1.985 0a2.524 2.524 0 00-.823-1.79c-.517-.484-1.146-.726-1.888-.726h-.823v-.484h3.631v3h-.097z" fill="#3881EE"/></svg>