<svg width="173" height="172" fill="none" xmlns="http://www.w3.org/2000/svg"><path d="M139.009 23.863c-8.992-9.052-20.76-15.22-34.552-17.442 26.634 24.606 26.745 50.22 24.286 69.787l-.149 1.19-.974.7c-3.892 2.802-6.882 6.836-8.268 11.803-3.249 11.634 3.524 23.646 15.164 26.894 11.641 3.248 23.658-3.522 26.906-15.156 1.735-6.213.431-12.594-2.839-17.687l-.506-.789.08-.933c2.022-23.58-5.263-44.389-19.147-58.367h-.001zm-34.334-9.645a103.739 103.739 0 00-7.86-7.226 78.612 78.612 0 00-14.68-.76 27.553 27.553 0 015.958 4.822 27.14 27.14 0 016.444 11.78 27.127 27.127 0 01.67 9.922A53.35 53.35 0 01122.622 45.3c-2.367-10.01-7.58-20.469-17.946-31.082zm-21.117.03a21.81 21.81 0 00-20.942-5.756c-6.25 1.605-11.127 5.923-13.905 11.3l-.43.834-.85.397C12.105 37.56-4.048 72.209 8.6 105.408c8.002-35.358 30.14-48.261 48.324-55.915l1.105-.465 1.093.492c4.374 1.968 9.365 2.54 14.361 1.257 11.705-3.004 18.727-14.872 15.72-26.572a21.775 21.775 0 00-5.645-9.957zm67.387 71.413a14.719 14.719 0 01-.217 20.887 14.735 14.735 0 01-20.896-.218 14.718 14.718 0 01.216-20.887 14.735 14.735 0 0120.897.218zM78.281 19.353a14.718 14.718 0 01-.217 20.886 14.735 14.735 0 01-20.897-.217 14.717 14.717 0 01.217-20.886 14.735 14.735 0 0120.897.217zm77.439 99.02c-6.428 4.348-14.65 5.966-22.685 3.724a27.258 27.258 0 01-4.584-1.733 54.175 54.175 0 01-3.437 3.698 53.367 53.367 0 01-25.073 13.846c11.752 3.56 26.084 3.937 44.522-2.514a77.703 77.703 0 0011.257-17.021zM99.242 74.288a16.387 16.387 0 00-23.233-.242 16.368 16.368 0 00-.242 23.222 16.389 16.389 0 0023.234.242 16.368 16.368 0 00.24-23.222zm43.626 67.384c-34.636 10.75-56.885-1.961-72.609-13.874l-.956-.725-.12-1.192c-.482-4.77-2.483-9.376-6.092-13.06-8.457-8.63-22.25-8.774-30.884-.322-8.634 8.453-8.777 22.239-.32 30.869 4.516 4.608 10.697 6.67 16.745 6.386l.937-.043.768.536c31.995 22.311 70.091 18.97 92.531-8.575zM37.427 66.618c-11.203 8.774-20.814 22.374-24.697 46.215a77.507 77.507 0 007.455 14.339c.228-6.785 2.95-13.498 8.168-18.606a27.136 27.136 0 018.365-5.584 53.773 53.773 0 01.709-36.364zM57.842 117.9a14.717 14.717 0 01-.216 20.886 14.735 14.735 0 01-20.897-.217 14.719 14.719 0 01.217-20.887 14.735 14.735 0 0120.896.218z" fill="#202D52"/></svg>