<svg width="21" height="21" fill="none" xmlns="http://www.w3.org/2000/svg"><path d="M10.798.8l-.742 2.715a.816.816 0 101.551.251h.001l-.002-.008a.81.81 0 00-.063-.23l-.745-2.73zm5.008 1.333l-1.957 1.94a.816.816 0 00.47 1.53 6.264 6.264 0 010 10.382.816.816 0 00-.503 1.51l1.978 1.96-.785-2.99a7.14 7.14 0 00.785-.678l.28-.28-.014-.014c.138-.154.267-.313.389-.476l3.01.792-2.187-2.209c.277-.639.456-1.31.535-1.991l2.992-.817-2.99-.816a7.046 7.046 0 00-.523-1.974l2.171-2.192-2.979.783a7.09 7.09 0 00-1.46-1.464l.788-2.996zm-10.012 0l.725 2.76c.01.074.028.145.056.212l.007.025a7.1 7.1 0 00-1.459 1.463L2.14 5.809l2.174 2.194a7.062 7.062 0 00-.524 1.973l-2.99.816 2.99.816c.078.683.256 1.356.533 1.996L2.137 15.81l3.006-.79a7.082 7.082 0 001.442 1.44.81.81 0 00-.072.305l-.707 2.689L7.88 17.4l-.002-.003a.816.816 0 00-.599-1.416 6.264 6.264 0 010-10.377l.05.002a.816.816 0 00.497-1.462l-2.03-2.011zm5.4 3.808v2.077l1.423.818 1.957-1.062-3.38-1.833zm-.792.014l-3.378 1.82 1.962 1.057 1.416-.808v-2.07zM6.625 8.459v4.83l1.963-1.058V9.517L6.625 8.459zm8.346.001l-1.964 1.065v2.699l1.964 1.065v-4.83.001zm-4.168.247l-1.423.812v2.723l1.423.812 1.413-.81V9.517l-1.413-.81v-.001zm1.825 4.212l-1.434.824v1.994l3.315-1.798-1.88-1.02zm-3.653.004l-1.886 1.015 3.313 1.785v-1.986l-1.427-.814zm1.822 3.992a.816.816 0 00-.748 1.142l.749 2.742.754-2.759a.806.806 0 00.05-.186l.003-.01h-.001a.816.816 0 00-.807-.93z" fill="#fff"/></svg>