<svg width="244" height="52" fill="none" xmlns="http://www.w3.org/2000/svg"><g clip-path="url(#clip0_514_361)"><path d="M31.449 11.566c-2.045-2.112-4.721-3.55-7.858-4.068 6.056 5.74 6.08 11.72 5.52 16.286l-.034.278-.222.163a5.05 5.05 0 00-1.881 2.755c-.74 2.716.8 5.52 3.447 6.277 2.648.757 5.382-.824 6.121-3.54.395-1.45.099-2.939-.645-4.127l-.115-.184.019-.218c.461-5.504-1.195-10.36-4.352-13.622zM23.64 9.317a23.815 23.815 0 00-1.787-1.686 17.428 17.428 0 00-3.34-.176A6.288 6.288 0 0119.87 8.58a6.38 6.38 0 011.465 2.75c.195.777.238 1.56.152 2.315a11.988 11.988 0 016.234 2.925c-.538-2.336-1.723-4.776-4.08-7.253zm-4.803.009c-1.2-1.24-2.99-1.81-4.763-1.342-1.422.375-2.531 1.383-3.163 2.638l-.098.194-.193.093C2.583 14.771-1.093 22.86 1.782 30.607 3.605 22.354 8.64 19.34 12.777 17.554l.251-.11.25.116a4.803 4.803 0 003.265.292c2.663-.702 4.26-3.472 3.577-6.203a5.12 5.12 0 00-1.283-2.323zM34.16 25.989a3.499 3.499 0 01-.05 4.875 3.292 3.292 0 01-4.753-.05 3.499 3.499 0 01.05-4.875 3.292 3.292 0 014.753.05zM17.637 10.517a3.499 3.499 0 01-.051 4.875 3.292 3.292 0 01-4.753-.05 3.499 3.499 0 01.05-4.874 3.292 3.292 0 014.754.05zm17.607 23.107a6.08 6.08 0 01-5.16.87 6.109 6.109 0 01-1.042-.404c-.246.297-.506.585-.782.863a12.06 12.06 0 01-5.704 3.233c2.673.83 5.933.918 10.127-.59a18.188 18.188 0 002.561-3.972zM22.401 23.337a3.66 3.66 0 00-5.284-.055 3.891 3.891 0 00-.057 5.42 3.661 3.661 0 005.285.055 3.891 3.891 0 00.056-5.42zm9.918 15.724c-7.878 2.511-12.938-.454-16.514-3.233l-.217-.17-.027-.278a5.103 5.103 0 00-1.385-3.047 4.873 4.873 0 00-7.025-.074c-1.964 1.974-1.997 5.191-.074 7.205 1.026 1.075 2.432 1.556 3.808 1.49l.213-.01.175.124c7.276 5.206 15.94 4.424 21.046-2.007zM8.341 21.552C5.793 23.6 3.606 26.774 2.721 32.34a18.294 18.294 0 001.695 3.346 6.436 6.436 0 011.859-4.343 6.169 6.169 0 011.903-1.304 12.86 12.86 0 01.163-8.488zm4.64 11.968a3.499 3.499 0 01-.05 4.874 3.292 3.292 0 01-4.753-.05 3.499 3.499 0 01.05-4.874 3.292 3.292 0 014.754.05z" fill="#202D52"/></g><path d="M108.887 29.025l-1.158 3.3c-.722 2.323-2.077 2.798-4.412 2.825h-3.362V22.055c.028-.818.694-1.425 1.556-1.425h.306v-.264h-7.698v.264h.305c.834 0 1.529.607 1.529 1.425V34.57c-.028.792-.695 1.373-1.5 1.373h-.334v.264h13.061l1.707-7.181z" fill="#202D52"/><path d="M122.651 19.943c-.362.185-1.89.423-2.918.423h-10.255c-1.056 0-2.473-.238-2.918-.423v4.198h.278v-.238c0-1.504.917-2.481 2.529-2.481h3.223v13.12c-.027.819-.694 1.426-1.528 1.426h-.306v.264h7.67v-.264h-.277c-.834 0-1.529-.607-1.529-1.399V21.422h3.196c1.64 0 2.557.977 2.557 2.481v.238h.278v-4.198zM132 36.206v-.264h-.333c-.89 0-1.585-.581-1.612-1.373v-12.54c.027-.792.722-1.4 1.612-1.4h.305v-.263h-7.865v.264h.334c.861 0 1.584.607 1.584 1.425v12.488c0 .818-.723 1.399-1.584 1.399h-.334v.264H132zM68.536 15.03h-.313l-9.285 15.147L49.246 15h-.313L46.37 34.067c-.188 1.159-1.188 1.842-2.314 1.842h-.469l-.587.297h7.624l-.503-.268h-.5c-.656 0-1.282-.623-1.22-1.277l1.251-10.692 7.243 8.356L58.938 37l.563-1.925c.753-3.025 1.621-4.125 1.621-4.125l3.912-7.04 1.251 10.751c.063.654-.563 1.277-1.22 1.277h-.5l-.771.268h11.14l-.958-.297h-.5c-1.126 0-2.095-.683-2.282-1.842L68.536 15.03zm18.999 5.336v.264h.389c.695 0 1.25.449 1.278 1.109v8.896c-.027 3.063-1.75 4.884-4.64 4.884-2.835 0-4.503-1.927-4.503-5.174v-8.58c.028-.686.556-1.135 1.25-1.135h.418v-.264h-7.31v.264h.362c.695 0 1.278.449 1.278 1.135v8.738c0 3.776 2.64 6.072 7.976 6.072 4.447 0 7.004-2.323 7.004-6.124v-8.712c0-.66.583-1.11 1.25-1.11h.39v-.263h-5.142z" fill="#202D52"/><path d="M139.019 16h4.393c.935 0 1.776.13 2.524.39.768.262 1.412.642 1.931 1.144a4.663 4.663 0 011.184 1.774c.291.682.436 1.463.436 2.346a5.74 5.74 0 01-.716 2.766 5.893 5.893 0 01-1.901 2.166c-.789.54-1.682.812-2.679.812.353.14.737.43 1.153.872.415.42.779.832 1.09 1.233l.405.601c.291.381.644.852 1.059 1.413.437.562.873 1.113 1.309 1.655.436.54.81.972 1.122 1.293.415.44.83.832 1.246 1.172a5.38 5.38 0 001.339.812c.499.2.104.045 1.257.335l4.616 1.38 8.195.836-10.214-.557c-.956 0-6.285-1.528-6.924-1.95-.685-.28-.751-.485-1.229-.886a13.098 13.098 0 01-1.215-1.203l-.53-.691a53.19 53.19 0 00-.997-1.353 109.46 109.46 0 00-2.087-2.918c-.27-.38-.426-.601-.467-.661a10.497 10.497 0 00-1.309-1.383c-.478-.421-.997-.632-1.558-.632v-.3l.468.03c.332 0 .727-.01 1.183-.03.54-.02 1.132-.1 1.776-.241a4.421 4.421 0 001.807-.872c.561-.442.987-1.113 1.278-2.015a5.74 5.74 0 00.155-.812c.042-.341.052-.672.032-.993-.021-1.363-.385-2.446-1.091-3.248-.685-.822-1.609-1.262-2.773-1.323-.581-.04-1.184-.05-1.807-.03h-2.149c0-.02-.032-.1-.094-.24a2.78 2.78 0 00-.156-.451l-.062-.241zm.405 0v21.05h-2.025V16h2.025zm-1.932 18.856v2.195H135v-.3h.405a1.9 1.9 0 001.371-.542c.394-.381.602-.832.623-1.353h.093zm0-16.66h-.093a1.833 1.833 0 00-.623-1.324 1.848 1.848 0 00-1.371-.571H135V16h2.492v2.195zm1.839 16.66h.093c0 .52.197.972.592 1.353.395.36.862.541 1.402.541h.374v.3h-2.461v-2.194z" fill="#3881EE"/><path d="M159.505 21.012v16.039h-1.772V21.012h1.772zm7.45 15.21l-.056.829h-7.449v-.829h7.505zm-1.302-7.591v.802h-6.203v-.802h6.203zm1.274-7.619v.829h-7.477v-.829h7.477zm1.578 12.216l-1.523 3.823h-4.209l.941-.829c.924 0 1.662-.125 2.216-.374a3.744 3.744 0 001.385-1.07c.35-.463.655-.98.913-1.55h.277zm-2.852-3.849v1.524h-.305v-.348c0-.303-.092-.561-.277-.775-.184-.232-.47-.348-.858-.348v-.053h1.44zm0-2.219v1.524h-1.44v-.053c.388 0 .674-.107.858-.321.185-.232.277-.5.277-.802v-.348h.305zm1.274-5.4v1.845h-.305v-.4c0-.375-.129-.696-.387-.963-.24-.268-.573-.401-.997-.401v-.08h1.689zm0-1.176v.695l-3.157-.267c.572 0 1.181-.044 1.828-.134.646-.107 1.089-.204 1.329-.294zm-9.139 14.756l.36 1.71h-2.409v-.266h.387c.462 0 .84-.143 1.136-.428a1.47 1.47 0 00.471-1.016h.055zm0-12.644h-.055a1.405 1.405 0 00-.471-1.016c-.296-.267-.674-.4-1.136-.4h-.387v-.268h2.409l-.36 1.684zm15.152-1.684h3.296c.498 0 1.07.045 1.717.134a7.092 7.092 0 011.911.534 3.804 3.804 0 011.523 1.203c.406.535.609 1.248.609 2.139a2.74 2.74 0 01-.443 1.497 4.12 4.12 0 01-1.136 1.176c-.461.303-.95.517-1.467.642.904.089 1.698.338 2.381.748.702.392 1.256.891 1.662 1.497.406.606.609 1.265.609 1.978 0 .873-.194 1.604-.581 2.192a4.087 4.087 0 01-1.468 1.363 6.787 6.787 0 01-1.994.722c-.72.143-1.422.214-2.105.214h-3.378v-.187c.018-.143.027-.276.027-.401v-.214h3.323c.794 0 1.505-.125 2.133-.374a3.3 3.3 0 001.523-1.23c.369-.552.554-1.247.554-2.085 0-.855-.194-1.542-.582-2.058a3.563 3.563 0 00-1.523-1.203 6.96 6.96 0 00-2.077-.561 16.207 16.207 0 00-2.271-.16v-.268c.499 0 1.034-.036 1.607-.107a5.534 5.534 0 001.578-.428 3.105 3.105 0 001.219-.989c.313-.445.47-1.034.47-1.764 0-1.123-.341-1.934-1.024-2.433-.683-.516-1.625-.775-2.825-.775h-3.019a1.1 1.1 0 00-.083-.214 12.142 12.142 0 00-.111-.4l-.055-.188zm1.385 0v16.039h-1.745V21.012h1.745zm-1.662 14.328v1.71h-2.077v-.266h.332c.48 0 .868-.143 1.164-.428.313-.285.48-.624.498-1.016h.083zm0-12.617h-.083a1.39 1.39 0 00-.498-1.043c-.296-.267-.684-.4-1.164-.4h-.332v-.268h2.077v1.71zm23.047-2.085c1.292 0 2.501.205 3.628.615a8.775 8.775 0 012.991 1.71 7.878 7.878 0 012.021 2.674c.48 1.015.72 2.147.72 3.395 0 1.247-.24 2.387-.72 3.421a7.955 7.955 0 01-2.021 2.646c-.85.749-1.847 1.328-2.991 1.738-1.127.392-2.336.588-3.628.588-1.293 0-2.502-.196-3.628-.588a9.519 9.519 0 01-2.991-1.738 8.119 8.119 0 01-1.994-2.646c-.48-1.034-.72-2.174-.72-3.422 0-1.247.24-2.379.72-3.394a8.039 8.039 0 011.994-2.674 9.128 9.128 0 012.991-1.71c1.126-.41 2.335-.615 3.628-.615zm0 15.985c1.366 0 2.603-.32 3.711-.962a7.037 7.037 0 002.631-2.673c.646-1.14.969-2.46.969-3.956 0-1.515-.323-2.834-.969-3.957a7.037 7.037 0 00-2.631-2.673c-1.108-.641-2.345-.962-3.711-.962-1.348 0-2.576.32-3.683.962a7.03 7.03 0 00-2.631 2.673c-.647 1.123-.97 2.442-.97 3.957 0 1.497.323 2.815.97 3.956a7.03 7.03 0 002.631 2.673c1.107.641 2.335.962 3.683.962zm15.225-15.611h3.572c.868 0 1.644.098 2.327.294.701.196 1.292.481 1.772.856a3.71 3.71 0 011.136 1.363c.258.535.387 1.14.387 1.818 0 .748-.184 1.443-.554 2.085a4.441 4.441 0 01-1.55 1.577c-.647.41-1.385.66-2.216.748.314.125.674.401 1.08.829.425.428.785.846 1.08 1.256l.36.481.914 1.15c.388.445.766.873 1.135 1.283.388.41.739.766 1.053 1.07.332.302.683.543 1.052.721.388.16.831.24 1.33.24v.268h-.859c-1.015 0-1.855-.125-2.52-.374-.646-.25-1.172-.553-1.579-.91-.406-.373-.757-.73-1.052-1.069a34.838 34.838 0 01-.526-.668 52.983 52.983 0 00-.859-1.203c-.314-.427-.6-.81-.858-1.15a43.22 43.22 0 00-.471-.64 6.812 6.812 0 00-1.274-1.23c-.48-.374-.988-.562-1.523-.562v-.267l.443.027c.295 0 .674-.01 1.135-.027a22.628 22.628 0 001.551-.107 3.162 3.162 0 001.44-.588c.462-.32.822-.855 1.08-1.604.074-.196.13-.427.167-.695.037-.267.046-.543.027-.829a3.405 3.405 0 00-.304-1.336 2.739 2.739 0 00-.748-1.016 3.37 3.37 0 00-1.136-.668 4.83 4.83 0 00-1.495-.268 33.682 33.682 0 00-2.271-.026c-.646.018-.969.018-.969 0s-.028-.09-.083-.214a2.527 2.527 0 00-.139-.401 37.76 37.76 0 01-.055-.214zm.332 0v16.039h-1.772V21.012h1.772zm-1.689 14.328l.332 1.71h-2.354v-.266h.388c.443 0 .812-.143 1.108-.428a1.47 1.47 0 00.471-1.016h.055zm0-12.644h-.055a1.405 1.405 0 00-.471-1.016c-.296-.267-.665-.4-1.108-.4h-.388v-.268h2.354l-.332 1.684zm1.606 12.644h.083c.019.392.176.73.471 1.016.295.285.665.428 1.108.428h.36l.027.267h-2.381l.332-1.71zm15.203-14.729l15.342 13.954.277 2.86-15.342-14.034-.277-2.78zm.055 14.783v1.657h-2.077v-.267h.471a1.55 1.55 0 001.08-.401c.295-.268.443-.597.443-.99h.083zm1.163 0c0 .392.148.721.443.989.314.267.674.4 1.08.4h.471v.268h-2.077v-1.657h.083zm-1.218-14.783l1.191 1.497.027 14.943h-1.246V23.953c0-.91-.046-1.693-.138-2.353l-.111-.989h.277zm15.619.401v12.992c0 .57.019 1.122.055 1.657.037.517.074.944.111 1.283l.083.481h-.249l-1.218-1.417V21.012h1.218zm-.083 1.657v-1.657H244v.267h-.471a1.62 1.62 0 00-1.08.401 1.283 1.283 0 00-.443.99h-.083zm-1.135 0a1.378 1.378 0 00-.471-.989 1.554 1.554 0 00-1.08-.4h-.471v-.268h2.077v1.657h-.055z" fill="#3881EE"/><defs><clipPath id="clip0_514_361"><path fill="#fff" transform="translate(0 6)" d="M0 0h39v40H0z"/></clipPath></defs></svg>